<svg width="37" height="37" viewBox="0 0 37 37" fill="none" xmlns="http://www.w3.org/2000/svg">
<path d="M35.3457 17.4912H30.2727V30.273H35.3457C36.2601 30.273 37 29.8647 37 29.36V18.4042C37 17.8996 36.2601 17.4912 35.3457 17.4912Z" fill="white"/>
<path d="M1.65425 16.8184C0.73989 16.8184 0 17.2925 0 17.8785V30.6003C0 31.1862 0.73989 31.6604 1.65425 31.6604H6.72727V16.8184H1.65425Z" fill="white"/>
<path d="M17.6722 17.5684C16.8454 17.5684 16.1023 18.0278 15.7329 18.7667L12.4333 25.3679C12.9859 25.6103 13.5702 25.7331 14.1673 25.7331C15.8176 25.7331 17.3028 24.8133 18.0427 23.3313L18.7562 21.9043H20.8543C21.4249 21.9043 21.9838 22.1361 22.3871 22.5394L30.4238 30.5762V17.5684H17.6722Z" fill="white"/>
<path d="M20.8543 24.0723H20.0963L20.0338 24.1976C19.0098 26.2454 17.013 27.6911 14.7311 27.8776C13.052 28.015 11.8885 27.532 10.5088 26.9044C9.94773 26.6493 9.70361 25.979 9.97923 25.4277L13.7931 17.7981C14.5276 16.3286 16.0295 15.4004 17.6722 15.4004H22.3502C22.6504 14.7353 22.8359 14.0093 22.8359 13.2324C22.8359 12.6333 22.3511 12.1484 21.752 12.1484H13.3363C12.1042 12.1484 10.978 12.8444 10.427 13.9464L9.45776 15.8849C9.27406 16.2523 8.89872 16.4844 8.48796 16.4844H6.57617V31.6602H11.5473L14.6182 34.7311C15.5083 35.6212 16.7905 35.9023 17.8966 35.5324L27.1539 32.6224C27.7071 32.4666 28.1735 32.1623 28.554 31.7719L20.8543 24.0723Z" fill="white"/>
</svg>
