<svg width="81" height="92" viewBox="0 0 81 92" fill="none" xmlns="http://www.w3.org/2000/svg">
<path d="M47.0625 56.4147C49.1251 56.4147 50.8126 54.7464 50.8126 52.7073C50.8126 50.6683 49.1251 49 47.0625 49C45 49 43.3125 50.6683 43.3125 52.7073C43.3125 54.7464 45 56.4147 47.0625 56.4147Z" fill="#FF5C4E"/>
<path d="M27.375 68.4629C22.2188 68.4629 18 72.6336 18 77.7312C18 82.8288 22.2188 86.9995 27.375 86.9995C32.5313 86.9995 36.7501 82.8288 36.7501 77.7312C36.7501 72.6336 32.5312 68.4629 27.375 68.4629ZM27.375 84.219C23.7188 84.219 20.8125 81.3458 20.8125 77.7312C20.8125 74.1166 23.7188 71.2434 27.375 71.2434C31.0313 71.2434 33.9376 74.1166 33.9376 77.7312C33.9376 81.3458 31.0313 84.219 27.375 84.219Z" fill="#FF5C4E"/>
<path d="M53.5313 66.5175V62.8102C50.7188 62.8102 48.375 61.7907 46.6875 60.1224L43.0312 56.6005C42.4687 55.9517 41.5312 55.4883 40.5 55.4883C39.4688 55.4883 38.5312 55.859 37.875 56.6005L32.7187 61.6981C32.0624 62.3469 31.5937 63.2736 31.5937 64.2932C31.5937 65.3128 32.0624 66.2395 32.7187 66.981L38.6249 72.1712V81.4395H42.375V69.8541L38.25 65.7761L42.6562 61.3273L44.0624 62.7175C46.4062 65.1273 49.6874 66.5175 53.5313 66.5175Z" fill="#FF5C4E"/>
<path d="M53.6249 68.4629C48.4687 68.4629 44.2499 72.6336 44.2499 77.7312C44.2499 82.8288 48.4687 86.9995 53.6249 86.9995C58.7812 86.9995 63 82.8288 63 77.7312C63 72.6336 58.7812 68.4629 53.6249 68.4629ZM53.6249 84.219C49.9687 84.219 47.0624 81.3458 47.0624 77.7312C47.0624 74.1166 49.9687 71.2434 53.6249 71.2434C57.2812 71.2434 60.1875 74.1166 60.1875 77.7312C60.1875 81.3458 57.2812 84.219 53.6249 84.219Z" fill="#FF5C4E"/>
</svg>
