<svg width="38" height="38" viewBox="0 0 38 38" fill="none" xmlns="http://www.w3.org/2000/svg">
<g clip-path="url(#clip0)">
<path d="M19.0001 20.7273C24.7238 20.7273 29.3637 16.0873 29.3637 10.3636C29.3637 4.63996 24.7238 0 19.0001 0C13.2764 0 8.63646 4.63996 8.63646 10.3636C8.63646 16.0873 13.2764 20.7273 19.0001 20.7273Z" fill="white"/>
<path d="M33.7493 26.3495C32.1164 25.5119 29.5154 24.3371 26.405 23.4979C25.9732 23.3765 25.5178 23.6169 25.3676 24.0402L21.8277 33.916L20.7559 28.5558L22.4107 23.5915C22.4984 23.3284 22.4546 23.0383 22.291 22.813C22.129 22.5879 21.8693 22.4546 21.5909 22.4546H16.4091C16.1308 22.4546 15.871 22.5879 15.7091 22.813C15.5455 23.0382 15.5016 23.3284 15.5893 23.5915L17.2441 28.5558L16.1724 33.916L12.6325 24.0402C12.4824 23.6169 12.0252 23.3773 11.5951 23.4979C8.48458 24.3371 5.88355 25.5119 4.25079 26.3495C1.62944 27.6955 0 30.3522 0 33.2813V34.5456C0 36.4508 1.55017 38.0001 3.45457 38.0001H16.4091H21.5909H34.5455C36.4499 38.0001 38.0001 36.4509 38.0001 34.5456V33.2813C38 30.3522 36.3706 27.6955 33.7493 26.3495Z" fill="white"/>
</g>
<defs>
<clipPath id="clip0">
<rect width="38" height="38" fill="white"/>
</clipPath>
</defs>
</svg>
