<svg width="73" height="73" viewBox="0 0 73 73" fill="none" xmlns="http://www.w3.org/2000/svg">
<path d="M55.9995 38.7466C55.9995 37.9992 55.8307 37.2853 55.526 36.6321C55.4946 36.4661 55.4587 36.3003 55.4138 36.1321L52.1129 27.9518L52.0906 27.8782C50.9357 24.4395 49.2924 21.2568 45.1256 21.2568H29.1941C24.9245 21.2568 23.4158 24.5183 22.2356 27.8591L18.7829 36.0594C18.2838 36.8591 18 37.774 18 38.7466V41.2921C18 41.6856 18.0465 42.0706 18.135 42.4414C18.049 42.6654 18 42.9068 18 43.1613V50.7321C18 51.8423 18.9 52.7425 20.0102 52.7425H24.1816C25.2912 52.7425 26.1912 51.8423 26.1912 50.7321V46.9462H48.0466V50.7321C48.0466 51.8423 48.9468 52.7425 50.057 52.7425H53.9896C55.1002 52.7425 56 51.8423 56 50.7321V43.1605C56 42.9069 55.9505 42.6644 55.8652 42.4411C55.9533 42.0698 56 41.6852 56 41.2918V38.7467H55.9995V38.7466ZM24.6853 28.6804C25.9997 24.9722 27.0566 23.8403 29.1941 23.8403H45.1247C47.2464 23.8403 48.4279 25.1028 49.6285 28.6645L52.0372 33.5457C51.2507 33.2545 50.3852 33.0929 49.4759 33.0929H24.5236C23.7049 33.0929 22.9224 33.2245 22.2005 33.4628L24.6853 28.6804ZM26.7545 42.2588H22.3532C21.5607 42.2588 20.918 41.6155 20.918 40.8232C20.918 40.0306 21.5607 39.3877 22.3532 39.3877H26.7545C27.5473 39.3877 28.19 40.0306 28.19 40.8232C28.19 41.6155 27.5468 42.2588 26.7545 42.2588ZM42.3023 41.9713H32.0647C31.5628 41.9713 31.156 41.5643 31.156 41.0626C31.156 40.56 31.5628 40.1532 32.0647 40.1532H42.3023C42.8048 40.1532 43.2114 40.56 43.2114 41.0626C43.2114 41.5643 42.8048 41.9713 42.3023 41.9713ZM51.5354 42.2588H47.1342C46.3411 42.2588 45.6988 41.6155 45.6988 40.8232C45.6988 40.0306 46.3416 39.3877 47.1342 39.3877H51.5354C52.3285 39.3877 52.9713 40.0306 52.9713 40.8232C52.9713 41.6155 52.3285 42.2588 51.5354 42.2588Z" fill="#FF5C4E"/>
</svg>
