<svg width="82" height="72" viewBox="0 0 82 72" fill="none" xmlns="http://www.w3.org/2000/svg">
<path d="M19.7798 36.4463C19.1799 36.4463 18.7098 36.638 18.3696 37.0215C18.0295 37.3988 17.8346 37.9368 17.7852 38.6357H21.7559C21.7435 37.9368 21.561 37.3988 21.2085 37.0215C20.856 36.638 20.3797 36.4463 19.7798 36.4463ZM20.1787 45.1855C18.5088 45.1855 17.2038 44.7248 16.2637 43.8032C15.3236 42.8817 14.8535 41.5767 14.8535 39.8882C14.8535 38.1502 15.2865 36.8081 16.1523 35.8618C17.0244 34.9093 18.2274 34.4331 19.7612 34.4331C21.2271 34.4331 22.3682 34.8506 23.1846 35.6855C24.001 36.5205 24.4092 37.674 24.4092 39.146V40.519H17.7202C17.7511 41.3231 17.9893 41.9508 18.4346 42.4023C18.8799 42.8538 19.5046 43.0796 20.3086 43.0796C20.9333 43.0796 21.5239 43.0146 22.0806 42.8848C22.6372 42.7549 23.2186 42.5477 23.8247 42.2632V44.4526C23.3299 44.7 22.8011 44.8825 22.2383 45C21.6755 45.1237 20.9889 45.1855 20.1787 45.1855ZM29.1777 45L25.2256 34.6279H28.1851L30.189 40.5376C30.4116 41.286 30.5508 41.9941 30.6064 42.6621H30.6621C30.693 42.0684 30.8322 41.3602 31.0796 40.5376L33.0742 34.6279H36.0337L32.0815 45H29.1777ZM41.8228 36.4463C41.2228 36.4463 40.7528 36.638 40.4126 37.0215C40.0724 37.3988 39.8776 37.9368 39.8281 38.6357H43.7988C43.7865 37.9368 43.604 37.3988 43.2515 37.0215C42.8989 36.638 42.4227 36.4463 41.8228 36.4463ZM42.2217 45.1855C40.5518 45.1855 39.2467 44.7248 38.3066 43.8032C37.3665 42.8817 36.8965 41.5767 36.8965 39.8882C36.8965 38.1502 37.3294 36.8081 38.1953 35.8618C39.0674 34.9093 40.2703 34.4331 41.8042 34.4331C43.27 34.4331 44.4111 34.8506 45.2275 35.6855C46.0439 36.5205 46.4521 37.674 46.4521 39.146V40.519H39.7632C39.7941 41.3231 40.0322 41.9508 40.4775 42.4023C40.9229 42.8538 41.5475 43.0796 42.3516 43.0796C42.9762 43.0796 43.5669 43.0146 44.1235 42.8848C44.6802 42.7549 45.2616 42.5477 45.8677 42.2632V44.4526C45.3729 44.7 44.8441 44.8825 44.2812 45C43.7184 45.1237 43.0319 45.1855 42.2217 45.1855Z" fill="white"/>
<line x1="13" y1="43.5" x2="1" y2="43.5" stroke="white" stroke-width="3"/>
<line x1="2.5" y1="43" x2="2.5" y2="26" stroke="white" stroke-width="3"/>
<line x1="2.5" y1="23" x2="2.5" stroke="white" stroke-width="3"/>
<line x1="49.5" y1="23" x2="49.5" y2="3" stroke="white" stroke-width="3"/>
<line x1="49.5" y1="45" x2="49.5" y2="26" stroke="white" stroke-width="3"/>
<line x1="4" y1="1.5" x2="51" y2="1.5" stroke="white" stroke-width="3"/>
<path d="M8.42969 68L7.60156 65.2812H3.4375L2.60938 68H0L4.03125 56.5312H6.99219L11.0391 68H8.42969ZM7.02344 63.25C6.25781 60.7865 5.82552 59.3932 5.72656 59.0703C5.63281 58.7474 5.5651 58.4922 5.52344 58.3047C5.35156 58.9714 4.85938 60.6198 4.04688 63.25H7.02344ZM23.3047 68H21.0781V61.1172L20.9531 61.6016C20.6719 62.7005 20.4193 63.5312 20.1953 64.0938L18.6484 68H16.9531L15.3828 64.0625C15.1589 63.4896 14.9193 62.6849 14.6641 61.6484L14.5156 61.1172V68H12.2969V59.2656H15.5781L17.0781 62.9922C17.2344 63.3932 17.3776 63.8542 17.5078 64.375C17.6432 64.8958 17.7344 65.3411 17.7812 65.7109C17.9531 64.9297 18.0859 64.3698 18.1797 64.0312C18.2786 63.6875 18.3854 63.3724 18.5 63.0859C18.6146 62.7995 19.1328 61.526 20.0547 59.2656H23.3047V68ZM24.5625 59.2656H27.1719L28.8203 64.1797C28.9609 64.6068 29.0573 65.112 29.1094 65.6953H29.1562C29.2135 65.1589 29.3255 64.6536 29.4922 64.1797L31.1094 59.2656H33.6641L29.9688 69.1172C29.6302 70.0286 29.1458 70.7109 28.5156 71.1641C27.8906 71.6172 27.1589 71.8438 26.3203 71.8438C25.9089 71.8438 25.5052 71.7995 25.1094 71.7109V69.8203C25.3958 69.888 25.7083 69.9219 26.0469 69.9219C26.4688 69.9219 26.8359 69.7917 27.1484 69.5312C27.4661 69.276 27.7135 68.888 27.8906 68.3672L28.0312 67.9375L24.5625 59.2656ZM39.7188 68.1562C38.6927 68.1562 37.888 67.7839 37.3047 67.0391H37.1797C37.263 67.7682 37.3047 68.1901 37.3047 68.3047V71.8438H34.9219V59.2656H36.8594L37.1953 60.3984H37.3047C37.862 59.5339 38.6875 59.1016 39.7812 59.1016C40.8125 59.1016 41.6198 59.5 42.2031 60.2969C42.7865 61.0938 43.0781 62.2005 43.0781 63.6172C43.0781 64.5495 42.9401 65.3594 42.6641 66.0469C42.3932 66.7344 42.0052 67.2578 41.5 67.6172C40.9948 67.9766 40.401 68.1562 39.7188 68.1562ZM39.0156 61.0078C38.4271 61.0078 37.9974 61.1901 37.7266 61.5547C37.4557 61.9141 37.3151 62.5104 37.3047 63.3438V63.6016C37.3047 64.5391 37.4427 65.2109 37.7188 65.6172C38 66.0234 38.4427 66.2266 39.0469 66.2266C40.1146 66.2266 40.6484 65.3464 40.6484 63.5859C40.6484 62.7266 40.5156 62.0833 40.25 61.6562C39.9896 61.224 39.5781 61.0078 39.0156 61.0078ZM48.5938 68.1562C45.875 68.1562 44.5156 66.6641 44.5156 63.6797C44.5156 62.1953 44.8854 61.0625 45.625 60.2812C46.3646 59.4948 47.4245 59.1016 48.8047 59.1016C49.8151 59.1016 50.7214 59.2995 51.5234 59.6953L50.8203 61.5391C50.4453 61.388 50.0964 61.2656 49.7734 61.1719C49.4505 61.0729 49.1276 61.0234 48.8047 61.0234C47.5651 61.0234 46.9453 61.9036 46.9453 63.6641C46.9453 65.3724 47.5651 66.2266 48.8047 66.2266C49.263 66.2266 49.6875 66.1667 50.0781 66.0469C50.4688 65.9219 50.8594 65.7292 51.25 65.4688V67.5078C50.8646 67.7526 50.474 67.9219 50.0781 68.0156C49.6875 68.1094 49.1927 68.1562 48.5938 68.1562ZM59.0078 59.2656H61.6328L58.1719 63.4531L61.9375 68H59.2344L55.6641 63.5703V68H53.2812V59.2656H55.6641V63.5078L59.0078 59.2656ZM68.7344 68L68.2734 66.8125H68.2109C67.8099 67.3177 67.3958 67.6693 66.9688 67.8672C66.5469 68.0599 65.9948 68.1562 65.3125 68.1562C64.474 68.1562 63.8125 67.9167 63.3281 67.4375C62.849 66.9583 62.6094 66.276 62.6094 65.3906C62.6094 64.4635 62.9323 63.7812 63.5781 63.3438C64.2292 62.901 65.2083 62.6562 66.5156 62.6094L68.0312 62.5625V62.1797C68.0312 61.2943 67.5781 60.8516 66.6719 60.8516C65.974 60.8516 65.1536 61.0625 64.2109 61.4844L63.4219 59.875C64.4271 59.349 65.5417 59.0859 66.7656 59.0859C67.9375 59.0859 68.8359 59.3411 69.4609 59.8516C70.0859 60.362 70.3984 61.138 70.3984 62.1797V68H68.7344ZM68.0312 63.9531L67.1094 63.9844C66.4167 64.0052 65.901 64.1302 65.5625 64.3594C65.224 64.5885 65.0547 64.9375 65.0547 65.4062C65.0547 66.0781 65.4401 66.4141 66.2109 66.4141C66.763 66.4141 67.2031 66.2552 67.5312 65.9375C67.8646 65.6198 68.0312 65.1979 68.0312 64.6719V63.9531ZM74.1875 68H71.6094L73.9609 64.5469C73.3984 64.3125 72.9714 63.974 72.6797 63.5312C72.3932 63.0885 72.25 62.5677 72.25 61.9688C72.25 61.125 72.5651 60.4635 73.1953 59.9844C73.8307 59.5052 74.6953 59.2656 75.7891 59.2656H79.8516V68H77.4688V64.75H76.1562L74.1875 68ZM74.5859 61.9844C74.5859 62.349 74.7292 62.6354 75.0156 62.8438C75.3021 63.0469 75.6771 63.1484 76.1406 63.1484H77.4688V60.9453H75.8359C75.4453 60.9453 75.138 61.0417 74.9141 61.2344C74.6953 61.4219 74.5859 61.6719 74.5859 61.9844Z" fill="white"/>
</svg>
