<svg width="14" height="14" viewBox="0 0 14 14" fill="none" xmlns="http://www.w3.org/2000/svg">
<g clip-path="url(#clip0)">
<path d="M9.47452 13.7766L13.0541 8.60667C14.3967 6.81677 14.2026 3.87467 12.6385 2.31087C11.7934 1.4655 10.6697 1 9.47452 1C8.27939 1 7.15565 1.4655 6.31052 2.31063C4.74649 3.87443 4.55235 6.81653 5.88959 8.59943L9.47452 13.7766ZM9.51582 3.8C10.4165 3.8 11.1492 4.5329 11.1492 5.43333C11.1492 6.33377 10.4165 7.06667 9.51582 7.06667C8.61515 7.06667 7.88249 6.33377 7.88249 5.43333C7.88249 4.5329 8.61515 3.8 9.51582 3.8Z" fill="white"/>
</g>
<defs>
<clipPath id="clip0">
<rect x="-0.00012207" width="14" height="14" fill="white"/>
</clipPath>
</defs>
</svg>
