<svg width="16" height="16" viewBox="0 0 16 16" fill="none" xmlns="http://www.w3.org/2000/svg">
<g clip-path="url(#clip0)">
<path d="M15.7534 5.12827C15.6838 5.09083 15.6075 5.07227 15.5312 5.07227C15.441 5.07227 15.3511 5.09827 15.2731 5.14977L8 9.94905L0.726906 5.1498C0.648875 5.0983 0.558906 5.0723 0.468688 5.0723C0.392531 5.0723 0.316094 5.09086 0.246594 5.1283C0.0947187 5.21002 0 5.36855 0 5.54105V15.5315C0 15.7904 0.209844 16.0003 0.46875 16.0003H15.5312C15.7901 16.0003 16 15.7904 16 15.5315V5.54105C16 5.36855 15.9053 5.21002 15.7534 5.12827Z" fill="#3B3939"/>
<path d="M8.26013 0.0787266C8.10266 -0.0262422 7.89754 -0.0262422 7.74013 0.0787266L1.27567 4.38832L8.00013 8.82557L14.7245 4.38832L8.26013 0.0787266Z" fill="#3B3939"/>
</g>
<defs>
<clipPath id="clip0">
<rect width="16" height="16" fill="white"/>
</clipPath>
</defs>
</svg>
