<svg width="9" height="9" viewBox="0 0 9 9" fill="none" xmlns="http://www.w3.org/2000/svg">
<g clip-path="url(#clip0)">
<path d="M8.79823 7.11266L7.40832 5.72259C7.13147 5.44686 6.67302 5.45524 6.38653 5.74183L5.68629 6.44192C5.64205 6.41754 5.59625 6.39207 5.54811 6.36505C5.10591 6.12003 4.50069 5.78421 3.86383 5.14688C3.22507 4.5082 2.88894 3.90205 2.64317 3.45957C2.61724 3.41269 2.59239 3.3675 2.56785 3.32457L3.03782 2.85531L3.26887 2.62397C3.5558 2.33696 3.56371 1.87863 3.28751 1.6021L1.89761 0.211883C1.62141 -0.0642628 1.16274 -0.0558854 0.875815 0.23112L0.484092 0.625093L0.494796 0.63572C0.363446 0.803321 0.253686 0.996623 0.172005 1.20508C0.0967117 1.4035 0.0498342 1.59284 0.0283993 1.78258C-0.155129 3.30407 0.540148 4.6946 2.42704 6.58152C5.0353 9.18959 7.13721 8.99257 7.22789 8.98295C7.42538 8.95934 7.61465 8.91216 7.807 8.83746C8.01364 8.75673 8.20681 8.64713 8.37431 8.51606L8.38287 8.52366L8.77971 8.13507C9.06605 7.84812 9.07429 7.38963 8.79823 7.11266Z" fill="white"/>
</g>
<defs>
<clipPath id="clip0">
<rect width="9" height="9" fill="white"/>
</clipPath>
</defs>
</svg>
