<svg width="77" height="77" viewBox="0 0 77 77" fill="none" xmlns="http://www.w3.org/2000/svg">
<path d="M24.3621 57.7158C23.7117 58.6718 23.9617 59.9815 24.9179 60.6353C25.8722 61.2887 27.1732 61.0402 27.8207 60.0781C28.1451 59.6018 31.4161 54.7894 34.596 50.0924L32.0582 46.3682C28.3886 51.7873 24.6048 57.3534 24.3621 57.7158Z" fill="#FF5C4E"/>
<path d="M30.2907 20.8013C30.2907 22.9039 31.9857 24.6072 34.0766 24.6072C36.1665 24.6072 37.8605 22.9039 37.8605 20.8013C37.8605 18.7011 36.1665 17 34.0766 17C31.9857 17 30.2907 18.701 30.2907 20.8013Z" fill="#FF5C4E"/>
<path d="M53.0353 42.0112H50.0782V40.4861C50.0782 40.0748 49.7464 39.7413 49.3372 39.7413H47.7629C47.8035 39.3785 47.72 39.0003 47.498 38.6742C47.2164 38.2632 39.5361 27.0351 39.5361 27.0351C38.9599 26.1949 38.1524 25.8223 37.2762 25.8223H31.3028C30.5557 25.8223 29.7212 26.1333 29.2195 26.8217C29.2195 26.8217 25.6408 31.7461 24.8445 32.8362C24.6093 33.158 24.5175 33.54 24.5462 33.9085C24.5462 34.6996 24.5443 38.69 24.5407 39.9052C24.5397 40.7823 25.245 41.49 26.112 41.49C26.9818 41.4922 27.6908 40.7838 27.6936 39.909C27.6936 39.5372 27.6936 36.0232 27.6973 34.2812C28.1591 33.6469 29.0522 32.421 29.9601 31.1763V38.7518C29.9601 40.4741 30.1802 41.8842 31.051 43.1718C33.6883 47.0374 42.0376 59.2933 42.5673 60.078C43.2178 61.0401 44.5168 61.2886 45.474 60.6352C46.4293 59.9814 46.6765 58.6717 46.0288 57.7157C45.8687 57.4793 44.0923 54.8718 41.8228 51.5428H53.0353C53.5681 51.5428 54.0001 51.1087 54.0001 50.5731V42.9809C54 42.4454 53.5681 42.0112 53.0353 42.0112ZM42.7171 40.4861V42.0112H39.8631C39.3303 42.0112 38.8984 42.4454 38.8984 42.981V47.2541C38.5811 46.789 38.2633 46.323 37.947 45.8595V30.2936C39.9968 33.2902 43.1482 37.8996 44.4071 39.7413H43.4581C43.0489 39.7413 42.7171 40.0748 42.7171 40.4861ZM48.5962 42.0112H44.1991V41.231H48.5962V42.0112Z" fill="#FF5C4E"/>
</svg>
