<svg width="11" height="11" viewBox="0 0 11 11" fill="none" xmlns="http://www.w3.org/2000/svg">
<g clip-path="url(#clip0)">
<path d="M5.49979 0C2.46231 0 -0.00012207 2.4625 -0.00012207 5.49991C-0.00012207 8.53732 2.46231 11 5.49979 11C8.53727 11 10.9999 8.53732 10.9999 5.49991C10.9999 2.4625 8.53727 0 5.49979 0ZM7.87755 6.54599H5.5458C5.53792 6.54599 5.53059 6.54408 5.52278 6.54379C5.51497 6.54416 5.50767 6.54599 5.49975 6.54599C5.28968 6.54599 5.11936 6.37567 5.11936 6.1656V2.2825C5.11936 2.07243 5.28968 1.90212 5.49975 1.90212C5.70982 1.90212 5.88014 2.07243 5.88014 2.2825V5.78522H7.8774C8.08747 5.78522 8.25779 5.95554 8.25779 6.1656C8.25779 6.37567 8.08762 6.54599 7.87755 6.54599Z" fill="white"/>
</g>
<defs>
<clipPath id="clip0">
<rect x="-0.00012207" width="11" height="11" fill="white"/>
</clipPath>
</defs>
</svg>
