<svg width="59" height="59" viewBox="0 0 59 59" fill="none" xmlns="http://www.w3.org/2000/svg">
<g clip-path="url(#clip0)">
<path d="M15.9072 11.9905C18.618 11.9905 20.8155 9.79298 20.8155 7.08218C20.8155 4.37137 18.618 2.17383 15.9072 2.17383C13.1964 2.17383 10.9988 4.37137 10.9988 7.08218C10.9988 9.79298 13.1964 11.9905 15.9072 11.9905Z" fill="#FF5C4E"/>
<path d="M32.9822 36.6391L31.1362 35.1563C30.7189 34.8208 30.1082 34.8871 29.7727 35.3048C29.4377 35.7222 29.5039 36.3328 29.9213 36.6678L31.8047 38.1807V42.2949C31.8047 42.3148 30.153 45.5486 30.153 45.5486C29.9057 46.0238 30.0907 46.6091 30.5655 46.8565C30.7086 46.9305 30.8615 46.9661 31.012 46.9661C31.3621 46.9661 31.7 46.7762 31.8734 46.4441L33.5421 43.2381L35.4095 46.4811C35.5892 46.7927 35.915 46.967 36.251 46.967C36.4151 46.967 36.5816 46.9252 36.734 46.837C37.1981 46.5697 37.3578 45.9766 37.0905 45.513L35.4607 42.683H41.4958V45.9966C41.4958 46.5327 41.9301 46.9666 42.4658 46.9666C43.0014 46.9666 43.4348 46.5317 43.4348 45.9966V42.3294C43.4362 42.3182 43.4421 42.3075 43.4421 42.2963V39.2296L38.9257 36.6405H32.9822V36.6391Z" fill="#FF5C4E"/>
<path d="M45.9518 34.6667C45.3524 34.1019 45.1508 33.4411 44.4783 32.9624C44.361 32.8797 44.2421 32.7945 44.1175 32.7238C44.0425 32.682 44.0186 32.6323 44.0269 32.5515C44.0556 32.2734 44.0834 31.9944 44.1058 31.7169C44.1457 31.2187 44.0011 30.7639 43.6013 30.4698C43.4406 30.351 42.6474 29.9668 42.3022 31.282C42.2272 31.5674 42.1249 31.8517 41.9881 32.1132C41.49 33.071 40.8565 33.947 40.2512 34.8391C39.9746 35.2457 39.6975 35.6523 39.4224 36.0579L43.6627 38.4726C43.6627 38.4726 44.4803 37.5791 44.5952 37.6298C44.7539 37.7004 44.9136 37.7685 45.0734 37.8382C45.5398 38.0417 46.0268 38.1357 46.5371 38.106C47.4038 38.0553 48.3071 37.5947 48.3899 36.5551C48.4654 35.6017 46.1539 34.8571 45.9518 34.6667Z" fill="#FF5C4E"/>
<path d="M30.1512 27.171L38.1555 35.839L38.9093 35.1432L30.9015 26.4713C28.4542 23.8696 26.3019 21.7709 24.7549 22.4253C24.6872 22.4541 24.6229 22.4877 24.5606 22.5261C20.9052 22.0236 20.1314 20.3232 18.9608 17.7507C18.3258 16.3547 17.6057 14.7721 16.3177 13.376C16.3085 13.3658 16.2968 13.359 16.287 13.3488C15.8371 12.8516 15.2878 12.4499 14.7274 12.1782C14.7274 12.1782 14.2541 11.9191 13.7136 11.8154C13.1969 11.7161 12.3024 11.7424 11.7356 11.8115C5.74918 12.687 3.09293 17.1099 0.532113 21.4008L0.27014 21.84C-0.269876 22.7428 0.0242357 23.9129 0.927508 24.4534C1.23379 24.6365 1.57075 24.7237 1.90382 24.7237C2.55194 24.7237 3.18398 24.393 3.54091 23.7961L3.80483 23.3539C5.1259 21.1398 6.3004 19.1823 7.80066 17.7673L6.19181 25.2764C5.96684 26.3262 6.26095 27.2947 6.84382 28.0811L6.35104 35.599L3.21807 43.6987C2.73503 44.9482 3.35587 46.353 4.60536 46.8356C4.89265 46.9471 5.18871 46.9997 5.47942 46.9997C6.45232 46.9997 7.36971 46.41 7.74174 45.4483L11.0081 37.0018C11.0967 36.7725 11.1503 36.531 11.1664 36.2856L11.4532 31.9089L14.3349 36.4638L16.6941 45.1474C16.9834 46.2328 17.9641 46.9486 19.0358 46.9476C19.2423 46.9476 19.4526 46.9208 19.6625 46.8658C20.9568 46.5205 21.7261 45.1917 21.3809 43.8974L18.9262 34.8549C18.8629 34.6183 18.7641 34.3914 18.6321 34.1834L14.7084 27.9828C14.834 27.7325 14.9348 27.4617 14.9991 27.1618L16.3124 21.0337C17.4781 23.2371 19.2793 25.4395 23.4085 26.1918C23.4075 26.5039 23.4153 26.8355 23.4314 27.1876L24.4564 27.1399C24.4423 26.8375 24.4369 26.5653 24.436 26.3096C25.3212 26.2517 26.075 25.586 26.1997 24.6725C26.2586 24.2431 26.1631 23.8311 25.9645 23.4805C27.2169 24.0488 29.1247 26.0798 30.1512 27.171Z" fill="#FF5C4E"/>
</g>
<defs>
<clipPath id="clip0">
<rect width="59" height="59" fill="white"/>
</clipPath>
</defs>
</svg>
