<svg width="11" height="11" viewBox="0 0 11 11" fill="none" xmlns="http://www.w3.org/2000/svg">
<g clip-path="url(#clip0)">
<path d="M10.8303 3.52483C10.7825 3.49909 10.73 3.48633 10.6776 3.48633C10.6156 3.48633 10.5538 3.5042 10.5001 3.53961L5.49988 6.83912L0.499626 3.53963C0.445979 3.50422 0.384126 3.48635 0.322101 3.48635C0.269743 3.48635 0.217192 3.49911 0.169411 3.52485C0.0649971 3.58103 -0.00012207 3.69002 -0.00012207 3.80862V10.6771C-0.00012207 10.855 0.144146 10.9993 0.322144 10.9993H10.6776C10.8556 10.9993 10.9999 10.855 10.9999 10.6771V3.80862C10.9999 3.69002 10.9348 3.58103 10.8303 3.52483Z" fill="white"/>
<path d="M5.67874 0.0541245C5.57048 -0.0180415 5.42946 -0.0180415 5.32124 0.0541245L0.876923 3.01697L5.49999 6.06758L10.123 3.01697L5.67874 0.0541245Z" fill="white"/>
</g>
<defs>
<clipPath id="clip0">
<rect x="-0.00012207" width="11" height="11" fill="white"/>
</clipPath>
</defs>
</svg>
